<svg width="28" height="33" viewBox="0 0 28 33" fill="none" xmlns="http://www.w3.org/2000/svg">
<g id="bookmark" clip-path="url(#clip0_2271_42363)">
<path id="Vector" d="M19.834 4.125H8.16732C6.88398 4.125 5.83398 5.3625 5.83398 6.875V28.0623C5.83398 28.4349 6.22685 28.6766 6.55941 28.5086L13.7752 24.8639C13.917 24.7923 14.0843 24.7923 14.2261 24.8639L21.4419 28.5086C21.7745 28.6766 22.1673 28.4349 22.1673 28.0623V6.875C22.1673 5.3625 21.1173 4.125 19.834 4.125ZM19.834 23.1118C19.834 23.8601 19.0424 24.3433 18.3769 24.0013L14.2292 21.8699C14.0857 21.7962 13.9156 21.7962 13.7721 21.8699L9.62437 24.0013C8.95888 24.3433 8.16732 23.8601 8.16732 23.1118V7.875C8.16732 7.32272 8.61503 6.875 9.16732 6.875H18.834C19.3863 6.875 19.834 7.32272 19.834 7.875V23.1118Z" fill="#55814E"/>
</g>
<defs>
<clipPath id="clip0_2271_42363">
<rect width="28" height="33" fill="white"/>
</clipPath>
</defs>
</svg>
