<svg width="17" height="18" viewBox="0 0 17 18" fill="none" xmlns="http://www.w3.org/2000/svg">
<g id="noun-delete-4834183">
<path id="Vector" d="M12.7428 5.90911L9.11228 9.5L12.7428 13.0909C12.7928 13.1403 12.8325 13.199 12.8595 13.2637C12.8866 13.3283 12.9005 13.3975 12.9005 13.4675C12.9005 13.5374 12.8866 13.6066 12.8595 13.6713C12.8325 13.7359 12.7928 13.7946 12.7428 13.844C12.6928 13.8935 12.6334 13.9327 12.5681 13.9595C12.5028 13.9862 12.4328 14 12.3621 14C12.2913 14 12.2213 13.9862 12.156 13.9595C12.0907 13.9327 12.0313 13.8935 11.9813 13.844L8.35078 10.2531L4.72 13.8438C4.61901 13.9436 4.48205 13.9997 4.33924 13.9997C4.19644 13.9997 4.05948 13.9436 3.95849 13.8438C3.85751 13.7439 3.80078 13.6084 3.80078 13.4672C3.80078 13.326 3.85751 13.1905 3.95849 13.0906L7.58928 9.5L3.95876 5.90911C3.85778 5.80924 3.80104 5.67379 3.80104 5.53255C3.80104 5.39131 3.85778 5.25585 3.95876 5.15598C4.05974 5.05611 4.1967 5 4.33951 5C4.48232 5 4.61928 5.05611 4.72026 5.15598L8.35078 8.74687L11.9816 5.15624C12.0826 5.05637 12.2195 5.00026 12.3623 5.00026C12.5051 5.00026 12.6421 5.05637 12.7431 5.15624C12.8441 5.25611 12.9008 5.39157 12.9008 5.53281C12.9008 5.67405 12.8438 5.80924 12.7428 5.90911Z" fill="#555353"/>
</g>
</svg>
