<svg width="26" height="26" viewBox="0 0 26 26" fill="none" xmlns="http://www.w3.org/2000/svg">
<path id="Vector" d="M24.375 4.875H21.9375V1.625C21.9375 1.17812 21.5719 0.8125 21.125 0.8125C20.6781 0.8125 20.3125 1.17812 20.3125 1.625V4.875H17.875C17.4281 4.875 17.0625 5.24062 17.0625 5.6875V8.9375C17.0625 9.38437 17.4281 9.75 17.875 9.75H20.3125V24.375C20.3125 24.8219 20.6781 25.1875 21.125 25.1875C21.5719 25.1875 21.9375 24.8219 21.9375 24.375V9.75H24.375C24.8219 9.75 25.1875 9.38437 25.1875 8.9375V5.6875C25.1875 5.24062 24.8219 4.875 24.375 4.875ZM23.5625 8.125H18.6875V6.5H23.5625V8.125ZM16.25 17.0625H13.8125V1.625C13.8125 1.17812 13.4469 0.8125 13 0.8125C12.5531 0.8125 12.1875 1.17812 12.1875 1.625V17.0625H9.75C9.30313 17.0625 8.9375 17.4281 8.9375 17.875V21.125C8.9375 21.5719 9.30313 21.9375 9.75 21.9375H12.1875V24.375C12.1875 24.8219 12.5531 25.1875 13 25.1875C13.4469 25.1875 13.8125 24.8219 13.8125 24.375V21.9375H16.25C16.6969 21.9375 17.0625 21.5719 17.0625 21.125V17.875C17.0625 17.4281 16.6969 17.0625 16.25 17.0625ZM15.4375 20.3125H10.5625V18.6875H15.4375V20.3125ZM8.9375 9.75C8.9375 9.30313 8.57188 8.9375 8.125 8.9375H5.6875V1.625C5.6875 1.17812 5.32188 0.8125 4.875 0.8125C4.42812 0.8125 4.0625 1.17812 4.0625 1.625V8.9375H1.625C1.17812 8.9375 0.8125 9.30313 0.8125 9.75V13C0.8125 13.4469 1.17812 13.8125 1.625 13.8125H4.0625V24.375C4.0625 24.8219 4.42812 25.1875 4.875 25.1875C5.32188 25.1875 5.6875 24.8219 5.6875 24.375V13.8125H8.125C8.57188 13.8125 8.9375 13.4469 8.9375 13V9.75ZM7.3125 12.1875H2.4375V10.5625H7.3125V12.1875Z" fill="#55814E"/>
</svg>
